<?xml version="1.0" standalone="no"?>
<!DOCTYPE svg PUBLIC "-//W3C//DTD SVG 20010904//EN" "http://www.w3.org/TR/2001/REC-SVG-20010904/DTD/svg10.dtd">
<svg version="1.0" xmlns="http://www.w3.org/2000/svg"
    width="40.000000pt" height="40.000000pt" viewBox="0 0 626.000000 626.000000"
    preserveAspectRatio="xMidYMid meet">

    <g transform="translate(0.000000,626.000000) scale(0.100000,-0.100000)"
        fill="#eab308" stroke="none">
        <path
            d="M3235 5239 c-720 -59 -1363 -381 -1665 -834 -18 -27 -35 -52 -36 -54
-2 -2 -13 8 -24 22 -31 39 -117 76 -191 83 -263 25 -547 -246 -629 -601 -63
-275 -7 -538 166 -781 57 -81 236 -274 321 -347 148 -127 374 -251 585 -322
122 -40 124 -40 216 27 111 83 230 132 404 169 87 19 136 23 308 23 113 0 255
-5 315 -13 253 -29 681 -94 869 -131 292 -57 360 -67 570 -85 104 -9 197 -20
206 -25 21 -11 53 -163 75 -355 15 -127 21 -448 9 -479 -5 -12 -14 -10 -52 14
-92 57 -319 160 -447 203 -215 73 -566 156 -880 207 -136 23 -326 26 -407 8
l-53 -12 140 -18 c258 -34 389 -65 640 -150 647 -218 824 -294 1066 -459 47
-33 88 -59 91 -59 9 0 27 88 37 185 14 135 -5 482 -40 724 -42 292 -45 270 49
322 126 69 247 156 314 227 59 63 144 189 244 361 132 226 197 496 174 717
-12 113 -32 179 -83 279 -93 180 -268 301 -536 372 -83 22 -116 26 -241 25
-80 -1 -158 -2 -174 -4 -29 -3 -30 -1 -46 67 -68 287 -295 544 -563 636 -152
52 -488 79 -732 58z m455 -179 c120 -14 193 -34 285 -80 156 -77 248 -172 331
-345 24 -49 52 -122 63 -161 l19 -72 -55 -38 c-136 -94 -223 -259 -223 -423
l0 -76 30 54 c100 181 304 342 495 391 96 25 252 27 357 5 226 -48 419 -224
472 -432 22 -83 22 -242 0 -346 -72 -353 -286 -658 -603 -858 -78 -49 -216
-107 -228 -95 -2 2 12 27 31 54 48 66 76 150 76 226 l0 61 -20 -32 c-31 -52
-232 -217 -319 -262 -64 -33 -89 -41 -133 -41 -53 0 -482 81 -495 93 -3 4 13
24 37 45 100 85 167 183 203 297 29 94 31 254 3 338 -10 32 -22 54 -26 50 -3
-4 -12 -44 -19 -88 -17 -107 -63 -244 -104 -308 -47 -72 -201 -215 -274 -254
-68 -37 -103 -40 -190 -18 -80 20 -485 54 -738 62 -195 5 -216 8 -300 35 -255
82 -540 261 -717 451 -36 40 -69 70 -72 67 -8 -8 62 -166 106 -239 86 -142
202 -244 376 -328 l95 -47 -109 -36 c-60 -20 -137 -51 -170 -69 l-61 -32 -77
25 c-185 63 -448 229 -598 379 -194 194 -298 414 -298 631 0 113 19 195 71
305 78 167 187 281 336 351 99 47 179 65 231 51 23 -7 42 -15 42 -20 0 -4 -9
-27 -21 -50 -11 -24 -41 -102 -65 -174 -49 -142 -64 -176 -101 -224 -32 -43
-19 -41 38 5 58 46 75 66 239 287 277 373 514 564 880 709 208 82 497 153 710
175 120 12 389 13 490 1z" />
        <path
            d="M1768 2060 c-78 -159 -94 -289 -71 -550 11 -127 40 -197 106 -264
106 -105 342 -179 678 -210 375 -35 475 -32 889 28 239 35 244 39 60 51 -52 4
-194 15 -315 25 -121 11 -299 24 -395 30 -557 33 -769 109 -696 248 32 60 106
108 206 133 71 17 396 18 545 0 331 -38 720 -124 1126 -250 239 -74 370 -103
538 -120 124 -13 269 -14 255 -3 -5 5 -70 21 -144 37 -197 40 -338 85 -490
158 -347 166 -728 276 -1175 342 -436 63 -812 27 -986 -96 -23 -16 -28 -17
-33 -4 -7 18 -22 171 -39 385 l-13 155 -46 -95z" />
    </g>
</svg>